<svg xmlns="http://www.w3.org/2000/svg" id="prefix__bell" width="26.765" height="32.713" viewBox="0 0 26.765 32.713">
    <g id="prefix__Group_1516" data-name="Group 1516">
        <path id="prefix__Path_720" fill="#fff" d="M68.473 23.571c-.851-1.27-2.016-3.009-2.016-7.958v-2.23a10.423 10.423 0 0 0-7.435-9.97v-.439a2.974 2.974 0 1 0-5.948 0v.438a10.424 10.424 0 0 0-7.435 9.97v2.23c0 4.949-1.165 6.688-2.016 7.958a4.208 4.208 0 0 0-.958 2.45c0 2.424 5.053 3.274 9.15 3.567a4.43 4.43 0 0 0 8.466 0c4.1-.293 9.15-1.143 9.15-3.567a4.208 4.208 0 0 0-.958-2.449zM57.535 3.093a9.367 9.367 0 0 0-2.974 0v-.119a1.487 1.487 0 0 1 2.974 0z" data-name="Path 720" transform="translate(-42.666)"/>
    </g>
</svg>
