<svg xmlns="http://www.w3.org/2000/svg" width="30.602" height="30.579" viewBox="0 0 30.602 30.579">
    <g id="prefix__boxes" transform="translate(-6 -6.192)">
        <path id="prefix__Path_810" fill="#adadad" d="M29.821 21.28h-4.169v-6.858a.448.448 0 0 0-.9 0v6.858h-7.786v-1.943a.448.448 0 0 0-.448-.448h-4.5V8.2h5.091v1.844a.717.717 0 0 0 .716.716h1.125a.717.717 0 0 0 .716-.716V8.2h5.091v4.43a.448.448 0 1 0 .9 0V8.087a.781.781 0 0 0-.781-.781h-9.439V.973a.781.781 0 0 0-.781-.781H6.423a.781.781 0 0 0-.781.781v2.834a.448.448 0 0 0 .9 0V1.089h2.719v1.844a.717.717 0 0 0 .716.716H11.1a.717.717 0 0 0 .716-.716V1.089h2.724v6.218h-2.971a.448.448 0 0 0-.448.448v3.736H6.539V5.6a.448.448 0 0 0-.9 0v5.892H3a.781.781 0 0 0-.781.78v6.618H.78a.781.781 0 0 0-.78.78v10.652a.448.448 0 0 0 .448.448h4.747a.448.448 0 1 0 0-.9H.9V19.786h6.3v1.844a.717.717 0 0 0 .716.716h1.13a.717.717 0 0 0 .716-.716v-1.844h6.308v10.088H6.987a.448.448 0 1 0 0 .9h23.166a.448.448 0 0 0 .448-.448v-8.265a.781.781 0 0 0-.78-.781zM10.922 2.752h-.764V1.089h.764zM18.768 8.2v1.667H18V8.2zm-12.03 4.187H7.5v1.663h-.762zm-3.619 0h2.722v1.844a.717.717 0 0 0 .716.716h1.125a.717.717 0 0 0 .716-.716v-1.844h2.722v6.5h-8zm5.746 9.062H8.1v-1.663h.764zm14.853.727v1.664h-.764v-1.663zm5.988 7.7h-12.74v-7.7h5.091v1.844a.717.717 0 0 0 .716.716H23.9a.717.717 0 0 0 .716-.716v-1.843h5.091v7.7z" data-name="Path 810" transform="translate(6 6)"/>
    </g>
</svg>
