<svg xmlns="http://www.w3.org/2000/svg" width="30.692" height="28.772" viewBox="0 0 30.692 28.772">
    <g id="prefix__browser" opacity="0.583" transform="translate(0 -16.014)">
        <path id="prefix__Path_793" fill="#fff" d="M30.412 29.239L18.484 17.311a4.442 4.442 0 0 0-6.274 0L.282 29.239A.959.959 0 0 0 1.637 30.6l.761-.761v12.189a2.758 2.758 0 0 0 2.758 2.758h4.8a.6.6 0 0 0 .6-.6v-8.872a3 3 0 0 1 3-3h3.6a3 3 0 0 1 3 3v8.872a.6.6 0 0 0 .6.6h4.8a2.758 2.758 0 0 0 2.744-2.758V29.835l.761.761a.959.959 0 0 0 1.356-1.357z" data-name="Path 793"/>
    </g>
</svg>
