<svg xmlns="http://www.w3.org/2000/svg" width="33.3" height="29.674" viewBox="0 0 33.3 29.674">
    <defs>
        <style>
            .prefix__cls-1{fill:#4452c6}
        </style>
    </defs>
    <g id="prefix__calendar" transform="translate(0 -20.9)">
        <g id="prefix__Group_1549" data-name="Group 1549" transform="translate(0 20.9)">
            <g id="prefix__Group_1548" data-name="Group 1548">
                <path id="prefix__Path_741" d="M29.848 23.424h-2.09v-1.657a.867.867 0 0 0-1.735 0v1.657h-8.5v-1.657a.867.867 0 0 0-1.735 0v1.657H7.2v-1.657a.867.867 0 0 0-1.735 0v1.657h-2A3.51 3.51 0 0 0 0 26.937V47.1a3.461 3.461 0 0 0 3.461 3.47h26.378a3.459 3.459 0 0 0 3.461-3.457V26.937a3.5 3.5 0 0 0-3.452-3.513zM31.574 47.1a1.731 1.731 0 0 1-1.717 1.735H3.461a1.725 1.725 0 0 1-1.726-1.726V26.937a1.765 1.765 0 0 1 1.726-1.778h2v1.258a.867.867 0 0 0 1.735 0v-1.258h8.587v1.258a.867.867 0 0 0 1.735 0v-1.258h8.5v1.258a.867.867 0 0 0 1.735 0v-1.258h2.09a1.764 1.764 0 0 1 1.726 1.778z" class="prefix__cls-1" data-name="Path 741" transform="translate(0 -20.9)"/>
            </g>
        </g>
        <g id="prefix__Group_1551" data-name="Group 1551" transform="translate(11.988 30.797)">
            <g id="prefix__Group_1550" data-name="Group 1550">
                <path id="prefix__Path_742" d="M140.585 135h-1.518a.867.867 0 0 0 0 1.735h1.518a.867.867 0 0 0 0-1.735z" class="prefix__cls-1" data-name="Path 742" transform="translate(-138.2 -135)"/>
            </g>
        </g>
        <g id="prefix__Group_1553" data-name="Group 1553" transform="translate(18.025 30.797)">
            <g id="prefix__Group_1552" data-name="Group 1552">
                <path id="prefix__Path_743" d="M210.185 135h-1.518a.867.867 0 0 0 0 1.735h1.518a.867.867 0 0 0 0-1.735z" class="prefix__cls-1" data-name="Path 743" transform="translate(-207.8 -135)"/>
            </g>
        </g>
        <g id="prefix__Group_1555" data-name="Group 1555" transform="translate(24.114 30.797)">
            <g id="prefix__Group_1554" data-name="Group 1554">
                <path id="prefix__Path_744" d="M280.385 135h-1.518a.867.867 0 1 0 0 1.735h1.518a.867.867 0 1 0 0-1.735z" class="prefix__cls-1" data-name="Path 744" transform="translate(-278 -135)"/>
            </g>
        </g>
        <g id="prefix__Group_1557" data-name="Group 1557" transform="translate(11.988 36.782)">
            <g id="prefix__Group_1556" data-name="Group 1556">
                <path id="prefix__Path_745" d="M140.585 204h-1.518a.867.867 0 0 0 0 1.735h1.518a.867.867 0 0 0 0-1.735z" class="prefix__cls-1" data-name="Path 745" transform="translate(-138.2 -204)"/>
            </g>
        </g>
        <g id="prefix__Group_1559" data-name="Group 1559" transform="translate(5.898 36.782)">
            <g id="prefix__Group_1558" data-name="Group 1558">
                <path id="prefix__Path_746" d="M70.394 204h-1.527a.867.867 0 1 0 0 1.735h1.518a.867.867 0 0 0 .009-1.735z" class="prefix__cls-1" data-name="Path 746" transform="translate(-68 -204)"/>
            </g>
        </g>
        <g id="prefix__Group_1561" data-name="Group 1561" transform="translate(18.025 36.782)">
            <g id="prefix__Group_1560" data-name="Group 1560">
                <path id="prefix__Path_747" d="M210.185 204h-1.518a.867.867 0 1 0 0 1.735h1.518a.867.867 0 0 0 0-1.735z" class="prefix__cls-1" data-name="Path 747" transform="translate(-207.8 -204)"/>
            </g>
        </g>
        <g id="prefix__Group_1563" data-name="Group 1563" transform="translate(24.114 36.782)">
            <g id="prefix__Group_1562" data-name="Group 1562">
                <path id="prefix__Path_748" d="M280.385 204h-1.518a.867.867 0 1 0 0 1.735h1.518a.867.867 0 1 0 0-1.735z" class="prefix__cls-1" data-name="Path 748" transform="translate(-278 -204)"/>
            </g>
        </g>
        <g id="prefix__Group_1565" data-name="Group 1565" transform="translate(11.988 42.681)">
            <g id="prefix__Group_1564" data-name="Group 1564">
                <path id="prefix__Path_749" d="M140.585 272h-1.518a.867.867 0 1 0 0 1.735h1.518a.867.867 0 1 0 0-1.735z" class="prefix__cls-1" data-name="Path 749" transform="translate(-138.2 -272)"/>
            </g>
        </g>
        <g id="prefix__Group_1567" data-name="Group 1567" transform="translate(5.898 42.681)">
            <g id="prefix__Group_1566" data-name="Group 1566">
                <path id="prefix__Path_750" d="M70.394 272h-1.527a.867.867 0 1 0 0 1.735h1.518a.867.867 0 0 0 .009-1.735z" class="prefix__cls-1" data-name="Path 750" transform="translate(-68 -272)"/>
            </g>
        </g>
        <g id="prefix__Group_1569" data-name="Group 1569" transform="translate(18.025 42.681)">
            <g id="prefix__Group_1568" data-name="Group 1568">
                <path id="prefix__Path_751" d="M210.185 272h-1.518a.867.867 0 1 0 0 1.735h1.518a.867.867 0 1 0 0-1.735z" class="prefix__cls-1" data-name="Path 751" transform="translate(-207.8 -272)"/>
            </g>
        </g>
    </g>
</svg>
