<svg xmlns="http://www.w3.org/2000/svg" width="27.955" height="32.247" viewBox="0 0 27.955 32.247">
    <path id="prefix__invoice_2_" fill="#4452c6" d="M45.792 21.632a7.054 7.054 0 1 0 10.749-6.006v-8.84a.536.536 0 0 0-.214-.429C49.649-.32 50.081.057 49.853.011 49.773 0 50.616 0 34.095 0a2.152 2.152 0 0 0-2.15 2.15V30.1a2.152 2.152 0 0 0 2.15 2.15h20.288a2.152 2.152 0 0 0 2.15-2.15.537.537 0 1 0-1.075 0 1.076 1.076 0 0 1-1.075 1.075H34.095A1.076 1.076 0 0 1 33.02 30.1V2.151a1.076 1.076 0 0 1 1.075-1.075H49.21v4.1a2.152 2.152 0 0 0 2.15 2.15h4.106v7.76a7.019 7.019 0 0 0-2.822-.5V10.75a1.614 1.614 0 0 0-1.612-1.612h-13.57a1.614 1.614 0 0 0-1.612 1.612v6.85a1.614 1.614 0 0 0 1.612 1.612h7.054a.537.537 0 1 0 0-1.075H42.1v-3.424h4.837a.537.537 0 0 0 .537-.537v-3.964h3.56a.538.538 0 0 1 .537.537v3.945a7.065 7.065 0 0 0-5.779 6.938zM51.36 6.248a1.076 1.076 0 0 1-1.075-1.075V1.836L54.7 6.249h-3.34zm-13.9 3.964h3.561v3.426h-4.1v-2.889a.538.538 0 0 1 .541-.537zm3.561 7.927h-3.559a.538.538 0 0 1-.537-.537v-2.889h4.1zm5.374-4.5H42.1v-3.427h4.3zm12.428 7.994a5.979 5.979 0 1 1-5.979-5.979 5.986 5.986 0 0 1 5.981 5.978zm-5.442 1.344v-.217a.535.535 0 0 0-.377-.513l-.641-.2a1.605 1.605 0 0 1-1.131-1.539v-.217a1.615 1.615 0 0 1 1.075-1.52v-.227a.537.537 0 1 1 1.075 0v.227a1.615 1.615 0 0 1 1.075 1.52.537.537 0 1 1-1.075 0 .537.537 0 1 0-1.075 0v.217a.535.535 0 0 0 .377.513l.641.2a1.605 1.605 0 0 1 1.131 1.539v.217a1.615 1.615 0 0 1-1.276 1.577v.17a.537.537 0 1 1-1.075 0v-.314a1.614 1.614 0 0 1-.873-1.432.537.537 0 1 1 1.075 0 .537.537 0 0 0 1.075 0zM35.85 22.17a.537.537 0 0 1 .537-.537h5.24a.537.537 0 1 1 0 1.075h-5.24a.537.537 0 0 1-.537-.538zm0 4.031a.537.537 0 0 1 .537-.537h6.584a.537.537 0 1 1 0 1.075h-6.584a.537.537 0 0 1-.537-.539z" data-name="invoice (2)" transform="translate(-31.945)"/>
</svg>
