<svg xmlns="http://www.w3.org/2000/svg" id="prefix__organization" width="34.13" height="34.13" viewBox="0 0 34.13 34.13">
    <defs>
        <style>
            .prefix__cls-1{fill:#4452c6}
        </style>
    </defs>
    <g id="prefix__Group_1578" data-name="Group 1578">
        <path id="prefix__Path_757" d="M27.653 17.565h1.486a2.52 2.52 0 1 0 0-1h-1.486A10.56 10.56 0 0 0 24.9 9.934l2.677-2.677a3.2 3.2 0 1 0-.707-.707L24.2 9.227a10.56 10.56 0 0 0-6.63-2.751V4.99a2.52 2.52 0 1 0-1 0v1.486a10.56 10.56 0 0 0-6.63 2.751L7.257 6.55a3.19 3.19 0 0 0-.8-4.524.5.5 0 0 0-.559.829 2.193 2.193 0 1 1-1.825-.291A.5.5 0 0 0 3.8 1.6a3.194 3.194 0 1 0 2.75 5.657l2.677 2.677a10.56 10.56 0 0 0-2.751 6.63H4.99a2.52 2.52 0 1 0 0 1h1.486A10.56 10.56 0 0 0 9.228 24.2L6.55 26.872a3.2 3.2 0 1 0 .707.707L9.934 24.9a10.56 10.56 0 0 0 6.63 2.751v1.486a2.52 2.52 0 1 0 1 0v-1.484A10.56 10.56 0 0 0 24.2 24.9l2.677 2.677a3.192 3.192 0 1 0 5.613.864.5.5 0 1 0-.949.316 2.192 2.192 0 1 1-1.279-1.347.5.5 0 0 0 .366-.931 3.191 3.191 0 0 0-3.044.39L24.9 24.2a10.561 10.561 0 0 0 2.751-6.63zm3.956-2.02a1.52 1.52 0 1 1-1.52 1.52 1.522 1.522 0 0 1 1.52-1.52zM29.455 2.481a2.194 2.194 0 1 1-2.193 2.193 2.2 2.2 0 0 1 2.193-2.193zm-13.91.039a1.52 1.52 0 1 1 1.52 1.52 1.522 1.522 0 0 1-1.52-1.52zM2.52 18.585a1.52 1.52 0 1 1 1.52-1.52 1.522 1.522 0 0 1-1.52 1.52zM17.065 7.464a9.6 9.6 0 1 1-9.6 9.6 9.611 9.611 0 0 1 9.6-9.6zM4.675 31.648a2.194 2.194 0 1 1 2.193-2.193 2.2 2.2 0 0 1-2.193 2.193zm13.91-.039a1.52 1.52 0 1 1-1.52-1.52 1.522 1.522 0 0 1 1.52 1.52z" class="prefix__cls-1" data-name="Path 757"/>
        <path id="prefix__Path_758" d="M164.152 160.874h4.489a.5.5 0 1 0 0-1h-1.161v-.847a.5.5 0 0 0-1 0v.847h-1.828v-2.462a2.2 2.2 0 0 1 2.193-2.194h5.926a2.2 2.2 0 0 1 2.193 2.194v2.462h-1.828v-.847a.5.5 0 1 0-1 0v.847h-1.162a.5.5 0 0 0 0 1h4.49a.5.5 0 0 0 .5-.5v-2.962a3.2 3.2 0 0 0-3.193-3.194h-.371a3.867 3.867 0 1 0-5.184 0h-.371a3.2 3.2 0 0 0-3.193 3.194v2.962a.5.5 0 0 0 .5.5zm2.789-9.523a2.867 2.867 0 1 1 2.867 2.867 2.87 2.87 0 0 1-2.867-2.867z" class="prefix__cls-1" data-name="Path 758" transform="translate(-152.743 -137.653)"/>
    </g>
</svg>
