<svg xmlns="http://www.w3.org/2000/svg" id="prefix__robot" width="32.924" height="32.924" viewBox="0 0 32.924 32.924">
    <defs>
        <style>
            .prefix__cls-1{fill:#4452c6}
        </style>
    </defs>
    <path id="prefix__Path_752" d="M66.744 200a2.744 2.744 0 1 0 2.744 2.744A2.744 2.744 0 0 0 66.744 200zm0 4.39a1.646 1.646 0 1 1 1.646-1.646 1.646 1.646 0 0 1-1.646 1.646zm0 0" class="prefix__cls-1" data-name="Path 752" transform="translate(-59.61 -186.282)"/>
    <path id="prefix__Path_753" d="M226.744 37.487A2.744 2.744 0 1 0 224 34.744a2.744 2.744 0 0 0 2.744 2.743zm0-4.39a1.646 1.646 0 1 1-1.646 1.646 1.646 1.646 0 0 1 1.646-1.643zm0 0" class="prefix__cls-1" data-name="Path 753" transform="translate(-208.635 -29.805)"/>
    <path id="prefix__Path_754" d="M31.278 16.695v-1.879a2.739 2.739 0 0 0-2.4-2.709L23.017 5.47a5.042 5.042 0 0 0 .03-.532 4.939 4.939 0 1 0-9.877 0c0 .087.009.172.013.258l-6.342 6.342a4.927 4.927 0 0 0-3 8.594v8.4H.549a.549.549 0 0 0-.549.551v3.292a.549.549 0 0 0 .549.549H21.4a.549.549 0 0 0 .549-.549v-3.292a.549.549 0 0 0-.549-.549H10.426v-8.4a4.852 4.852 0 0 0 1.579-4.445l5.823-5.825c.093.005.185.014.28.014a4.928 4.928 0 0 0 .832-.076l6.85 5.4v1.5a2.744 2.744 0 0 0-1.646 2.51v5.487a.549.549 0 0 0 .794.494l2.195-1.1a.549.549 0 0 0 .3-.494v-3.845h2.195V23.6a.549.549 0 0 0 .3.494l2.195 1.1a.549.549 0 0 0 .794-.494v-5.494a2.744 2.744 0 0 0-1.639-2.511zM18.108 1.1a3.841 3.841 0 1 1-3.841 3.841A3.841 3.841 0 0 1 18.108 1.1zm2.744 30.729H1.1v-2.197h19.752zM9.328 28.534H4.939v-7.655a4.883 4.883 0 0 0 4.39 0zM7.134 20.3a3.841 3.841 0 1 1 3.841-3.841A3.841 3.841 0 0 1 7.134 20.3zm4.522-5.817a4.956 4.956 0 0 0-3.386-2.82l5.158-5.158a4.954 4.954 0 0 0 3.1 3.109zm11.038-7.721l4.856 5.5a2.743 2.743 0 0 0-1.6 1.665L20.208 9.4a4.961 4.961 0 0 0 2.486-2.638zm4.194 8.054a1.646 1.646 0 0 1 3.292 0v1.646h-3.292zm4.939 8.989l-1.1-.549v-4.05a.549.549 0 0 0-.549-.549h-3.29a.549.549 0 0 0-.549.549v4.051l-1.1.549v-4.6a1.646 1.646 0 0 1 1.646-1.646h3.295a1.646 1.646 0 0 1 1.646 1.646zm0 0" class="prefix__cls-1" data-name="Path 754"/>
    <path id="prefix__Path_755" d="M88.549 336a.549.549 0 0 0-.549.549v3.292a.549.549 0 0 0 1.1 0v-3.292a.549.549 0 0 0-.551-.549zm0 0" class="prefix__cls-1" data-name="Path 755" transform="translate(-81.964 -312.953)"/>
    <path id="prefix__Path_756" d="M154.265 128.252l-2.195 2.195a.549.549 0 1 0 .776.776l2.195-2.195a.549.549 0 0 0-.776-.776zm0 0" class="prefix__cls-1" data-name="Path 756" transform="translate(-141.483 -119.312)"/>
</svg>
