<svg xmlns="http://www.w3.org/2000/svg" width="32.696" height="28.163" viewBox="0 0 32.696 28.163">
    <g id="prefix__send_2_" data-name="send (2)" transform="translate(-33 -31.985)">
        <path id="prefix__Path_729" fill="#4452c6" d="M0 48.07a1.584 1.584 0 0 0 1.136 1.43l11.977 3.621.44 8.256a.819.819 0 0 0 .554.72.75.75 0 0 0 .267.047.81.81 0 0 0 .614-.273l4.235-4.688 6 4.155a1.575 1.575 0 0 0 .907.287 1.61 1.61 0 0 0 1.567-1.28l4.983-25.386a.815.815 0 0 0-1.107-.914L.963 46.5A1.609 1.609 0 0 0 0 48.07zm15.074 11.264l-.274-5.209 3.068 2.121zm11.03.634L15.181 52.4 30.5 37.587zm2.714-23.034L13.674 51.585 1.71 47.97z" data-name="Path 729" transform="translate(33 -2)"/>
    </g>
</svg>
