<svg xmlns="http://www.w3.org/2000/svg" width="28.063" height="33.674" viewBox="0 0 28.063 33.674">
    <defs>
        <style>
            .prefix__cls-1{fill:#4452c6}
        </style>
    </defs>
    <g id="prefix__shipping-and-delivery_3_" data-name="shipping-and-delivery (3)" transform="translate(-1.999)">
        <path id="prefix__Path_730" d="M26.942 29.465H8.7a.7.7 0 0 1-.7-.7V.7a.7.7 0 1 1 1.4 0v27.36h17.542a.7.7 0 0 1 0 1.4z" class="prefix__cls-1" data-name="Path 730" transform="translate(2.419)"/>
        <path id="prefix__Path_731" d="M11.12 17.4H2.7a.7.7 0 1 1 0-1.4h8.42a.7.7 0 0 1 0 1.4z" class="prefix__cls-1" data-name="Path 731" transform="translate(0 6.45)"/>
        <path id="prefix__Path_732" d="M5.508 26.016a3.508 3.508 0 1 1 3.508-3.508 3.511 3.511 0 0 1-3.508 3.508zm0-5.612a2.1 2.1 0 1 0 2.1 2.1 2.107 2.107 0 0 0-2.1-2.104z" class="prefix__cls-1" data-name="Path 732" transform="translate(0 7.659)"/>
        <path id="prefix__Path_733" d="M4.7 21.612a.7.7 0 0 1-.7-.7V16.7a.7.7 0 0 1 1.4 0v4.209a.7.7 0 0 1-.7.703z" class="prefix__cls-1" data-name="Path 733" transform="translate(.806 6.45)"/>
        <path id="prefix__Path_734" d="M8.314 22.644a.7.7 0 0 1-.671-.5L2.031 3.908a.7.7 0 0 1 1.341-.414l5.612 18.24a.7.7 0 0 1-.463.877.674.674 0 0 1-.207.033z" class="prefix__cls-1" data-name="Path 734" transform="translate(0 1.209)"/>
        <path id="prefix__Path_735" d="M20.056 25.612a2.806 2.806 0 1 1 2.806-2.806 2.809 2.809 0 0 1-2.806 2.806zm0-4.209a1.4 1.4 0 1 0 1.4 1.4 1.4 1.4 0 0 0-1.4-1.403z" class="prefix__cls-1" data-name="Path 735" transform="translate(6.148 8.062)"/>
        <path id="prefix__Path_736" d="M20.12 16.822H11.7a.7.7 0 0 1-.7-.7V7.7a.7.7 0 0 1 .7-.7h8.42a.7.7 0 0 1 .7.7v8.42a.7.7 0 0 1-.7.702zm-7.717-1.4h7.016V8.4H12.4z" class="prefix__cls-1" data-name="Path 736" transform="translate(3.628 2.822)"/>
        <path id="prefix__Path_737" d="M14.7 11.911a.7.7 0 0 1-.7-.7V7.7a.7.7 0 1 1 1.4 0v3.508a.7.7 0 0 1-.7.703z" class="prefix__cls-1" data-name="Path 737" transform="translate(4.837 2.822)"/>
        <path id="prefix__Path_738" d="M21.12 10.822H12.7a.7.7 0 0 1-.7-.7V1.7a.7.7 0 0 1 .7-.7h8.42a.7.7 0 0 1 .7.7v8.42a.7.7 0 0 1-.7.702zM13.4 9.419h7.016V2.4H13.4z" class="prefix__cls-1" data-name="Path 738" transform="translate(4.031 .403)"/>
        <path id="prefix__Path_739" d="M15.7 5.911a.7.7 0 0 1-.7-.7V1.7a.7.7 0 0 1 1.4 0v3.509a.7.7 0 0 1-.7.702z" class="prefix__cls-1" data-name="Path 739" transform="translate(5.241 .403)"/>
        <path id="prefix__Path_740" d="M25.539 14.4H8.7a.7.7 0 0 1 0-1.4h16.839a.7.7 0 1 1 0 1.4z" class="prefix__cls-1" data-name="Path 740" transform="translate(2.419 5.24)"/>
    </g>
</svg>
