<svg xmlns="http://www.w3.org/2000/svg" width="41.619" height="26.327" viewBox="0 0 41.619 26.327">
    <defs>
        <style>
            .prefix__cls-1{fill:#4452c6}
        </style>
    </defs>
    <g id="prefix__truck_2_" data-name="truck (2)" transform="translate(0 -94.062)">
        <g id="prefix__Group_1532" data-name="Group 1532" transform="translate(0 94.062)">
            <g id="prefix__Group_1531" data-name="Group 1531">
                <path id="prefix__Path_723" d="M38.706 105.223l-1.078-4.311a.652.652 0 0 0 .516-.637v-.7a2.74 2.74 0 0 0-2.737-2.737H30.5v-1.429a1.348 1.348 0 0 0-1.347-1.347H4.127a1.348 1.348 0 0 0-1.347 1.347v11.817a.652.652 0 0 0 1.3 0V95.409a.043.043 0 0 1 .043-.043h25.028a.043.043 0 0 1 .043.043v11.817a.652.652 0 1 0 1.3 0v-.739h7.691a2.132 2.132 0 0 1 2.025 1.477h-2.023a.652.652 0 0 0-.652.652v1.39a2.044 2.044 0 0 0 2.042 2.042h.739v2.867h-1.7a4.126 4.126 0 0 0-7.8 0H30.5v-4.909a.652.652 0 0 0-1.3 0v4.909H15.674a4.126 4.126 0 0 0-7.8 0H4.127a.043.043 0 0 1-.043-.043v-1.434h2.824a.652.652 0 0 0 0-1.3H.652a.652.652 0 0 0 0 1.3H2.78v1.434a1.348 1.348 0 0 0 1.347 1.347h3.52v.043a4.127 4.127 0 1 0 8.254 0v-.043h14.685v.043a4.127 4.127 0 1 0 8.254 0v-.043h2.13a.652.652 0 0 0 .652-.652v-6.951a3.437 3.437 0 0 0-2.916-3.393zM30.5 98.146h4.909a1.435 1.435 0 0 1 1.434 1.434v.043H30.5zm0 7.038v-4.258h5.791l1.064 4.258zm-18.724 13.9a2.824 2.824 0 1 1 2.824-2.824 2.827 2.827 0 0 1-2.827 2.826zm22.938 0a2.824 2.824 0 1 1 2.824-2.824 2.827 2.827 0 0 1-2.826 2.826zm5.6-8.341h-.739a.739.739 0 0 1-.739-.739v-.739h1.477v1.477z" class="prefix__cls-1" data-name="Path 723" transform="translate(0 -94.062)"/>
            </g>
        </g>
        <g id="prefix__Group_1534" data-name="Group 1534" transform="translate(10.427 114.915)">
            <g id="prefix__Group_1533" data-name="Group 1533">
                <path id="prefix__Path_724" d="M129.614 350.6a1.347 1.347 0 1 0 1.347 1.347 1.348 1.348 0 0 0-1.347-1.347z" class="prefix__cls-1" data-name="Path 724" transform="translate(-128.267 -350.597)"/>
            </g>
        </g>
        <g id="prefix__Group_1536" data-name="Group 1536" transform="translate(33.365 114.915)">
            <g id="prefix__Group_1535" data-name="Group 1535">
                <path id="prefix__Path_725" d="M411.8 350.6a1.347 1.347 0 1 0 1.347 1.347 1.348 1.348 0 0 0-1.347-1.347z" class="prefix__cls-1" data-name="Path 725" transform="translate(-410.455 -350.597)"/>
            </g>
        </g>
        <g id="prefix__Group_1538" data-name="Group 1538" transform="translate(16.682 112.135)">
            <g id="prefix__Group_1537" data-name="Group 1537">
                <path id="prefix__Path_726" d="M215.61 316.393h-9.731a.652.652 0 1 0 0 1.3h9.731a.652.652 0 0 0 0-1.3z" class="prefix__cls-1" data-name="Path 726" transform="translate(-205.227 -316.393)"/>
            </g>
        </g>
        <g id="prefix__Group_1540" data-name="Group 1540" transform="translate(1.39 109.354)">
            <g id="prefix__Group_1539" data-name="Group 1539">
                <path id="prefix__Path_727" d="M26.095 282.188h-8.341a.652.652 0 1 0 0 1.3h8.341a.652.652 0 1 0 0-1.3z" class="prefix__cls-1" data-name="Path 727" transform="translate(-17.102 -282.188)"/>
            </g>
        </g>
        <g id="prefix__Group_1542" data-name="Group 1542" transform="translate(11.817 100.318)">
            <g id="prefix__Group_1541" data-name="Group 1541">
                <path id="prefix__Path_728" d="M156.214 171.213a.652.652 0 0 0-.922 0l-5.8 5.8-3.015-3.015a.652.652 0 0 0-.922.922l3.476 3.476a.652.652 0 0 0 .921 0l6.256-6.256a.652.652 0 0 0 .006-.927z" class="prefix__cls-1" data-name="Path 728" transform="translate(-145.37 -171.023)"/>
            </g>
        </g>
    </g>
</svg>
